<svg xmlns="http://www.w3.org/2000/svg" viewBox="0 0 344.86 290.27"><defs><style>.cls-1{fill:#fff;}</style></defs><title>carrinho</title><g id="Camada_2" data-name="Camada 2"><g id="Camada_1-2" data-name="Camada 1"><path class="cls-1" d="M116.31,290.27a38.88,38.88,0,1,1,38.88-38.88A38.92,38.92,0,0,1,116.31,290.27Z"/><path class="cls-1" d="M290.85,290.27a38.88,38.88,0,1,1,38.88-38.88A38.92,38.92,0,0,1,290.85,290.27Z"/><path class="cls-1" d="M290.85,257.38H125a14.65,14.65,0,0,1-14-19.11l22.27-54.75a6,6,0,0,1,11.11,4.53l-22.12,54.31a2.73,2.73,0,0,0,.54,1.95,2.65,2.65,0,0,0,2.15,1.08H290.85a6,6,0,1,1,0,12Z"/><path class="cls-1" d="M342,39.45a14.69,14.69,0,0,0-11.81-6l-249.84.09L68.63,6.65a6,6,0,0,0-5.49-3.6H7.62a6,6,0,1,0,0,12H59.21l73.28,167.88a14.6,14.6,0,0,0,13.44,8.86H289.49a14.61,14.61,0,0,0,14-10.24l40.72-129A14.69,14.69,0,0,0,342,39.45ZM277.25,157.08H154.68a6,6,0,0,1,0-12H277.25a6,6,0,0,1,0,12Zm10.46-37.85H144.22a6,6,0,1,1,0-12H287.71a6,6,0,1,1,0,12Zm8.58-37.85H135.63a6,6,0,0,1,0-12H296.29a6,6,0,1,1,0,12Z"/><path class="cls-1" d="M18.91,9.45A9.46,9.46,0,1,1,9.45,0,9.47,9.47,0,0,1,18.91,9.45Z"/></g></g></svg>