<svg xmlns="http://www.w3.org/2000/svg" viewBox="0 0 646.46 418.91"><defs><style>.cls-1{fill:#fff;}.cls-2{fill:#f9f9f9;}</style></defs><title>logo_1</title><g id="Camada_2" data-name="Camada 2"><g id="Camada_1-2" data-name="Camada 1"><path class="cls-1" d="M248.46,225.78l-9.19,10.93c-3,3.62-6,7.16-8.94,10.54l-1.44,1.64,26,11.71s13.85-10.91,13.85-17.85V201.87l-2.1,2.47Z"/><path class="cls-1" d="M571.37,231.27c-1.5-1-3.23-2.34-5.29-3.77s-4.2-3.3-6.68-5.13-5-4-7.77-6.25L543.05,209c-6-4.9-12.32-10.18-18.6-15.54-8.82-7.65-17.51-15.41-25.08-22.27L396.88,0l-2,1.22C390.61,2.51,375.69,6.8,338,15.65c-46.48,10.91-96.92-2-96.92-2s-11.87,20.82-38.57,65.45l-.28.44,39.31-58.42s34.83,4.65,59.3,4.65,34.33,14.48,34.33,14.48l-72.67,145-26.09,18.81-92-38.62,36.94-54.9c-4.85,5.71-10.47,12.31-16.44,19.43l-19.23,22.84-9.81,11.57c-3.26,3.8-6.44,7.56-9.46,11.25s-5.89,7.29-8.55,10.75l-3.9,5-3.6,4.74c-2.3,3-4.37,5.86-6.2,8.36s-3.41,4.71-4.69,6.53c-2.57,3.65-4,5.78-4,5.78l.34.27s1.8-1.8,4.85-5.06c1.53-1.62,3.36-3.61,5.45-5.9s4.42-4.9,6.93-7.77l3.92-4.48,4.14-4.83c2.85-3.31,5.79-6.86,8.8-10.55,2.35-2.9,4.73-5.92,7.12-9L236.08,210H235v4.92l-87.92-35.66V212l75.73,34.13q-2.93,3.38-5.6,6.6l-3.83,4.6-3.53,4.35c-2.27,2.78-4.3,5.37-6.1,7.67s-3.35,4.32-4.61,6c-2.53,3.35-3.91,5.31-3.91,5.31l.33.29s1.76-1.63,4.75-4.57c1.5-1.47,3.3-3.27,5.35-5.35s4.34-4.44,6.8-7.05l3.85-4.06c1.31-1.43,2.66-2.89,4.06-4.4,2.8-3,5.68-6.25,8.64-9.61s5.93-6.93,8.94-10.55l9.19-10.92L265.29,203c3.12-3.66,6.1-7.2,8.91-10.55l-.1,10.75L336.21,195V138.14c1.1-1,2.21-2,3.31-3l1.05,58.11,143.79,35.56L342,201.56l-.07,0-67.83,6v.5c0,1.26.11,30.91.28,34a.75.75,0,0,0,.27.53c.81.72,6.47,1,15.54,1,48.51,0,194.33-8.75,214-10l.61.15v-.18l3.82-.24-3.84-.73-1.08-55.39L502,175.62l-.09-.15q3.44,3.27,7.09,6.7l-1.6,51h3.26l-1.6-50.9c4.5,4.22,9.2,8.56,13.94,12.87,6.13,5.56,12.29,11.1,18.24,16.1,3,2.41,5.87,4.88,8.76,7s5.52,4.2,8.11,5.94,4.89,3.41,7.09,4.69,4,2.49,5.66,3.3l5.16,2.46.12-.24ZM455.53,100.75l-11.91,10.93-1.43-2.15,12.22-10.59ZM453.84,98l-11.95,11-1.44-2.15,12.27-10.7Zm-1.69-2.73-12,11.17-1.43-2.16L451,93.5Zm-1.69-2.72-12,11.28L437,101.71l12.37-10.93Zm-1.68-2.72-12.09,11.4-1.44-2.16,12.41-11Zm-1.69-2.73L435,98.65l-1.44-2.16L446,85.33Zm-1.69-2.72L433.22,96.05l-1.44-2.16,12.5-11.28Zm-1.69-2.72L431.49,93.45l-1.44-2.17,12.54-11.39ZM442,79,429.76,90.85l-1.45-2.17L440.9,77.16Zm-1.69-2.72L428,88.25l-1.44-2.17,12.63-11.64Zm-1.69-2.73L426.29,85.64l-1.44-2.17,12.68-11.75ZM437,70.8,424.56,83.05l-1.44-2.18L435.84,69Zm-1.68-2.72L422.83,80.45l-1.45-2.18,12.77-12Zm-1.69-2.72L421.1,77.85l-1.45-2.18,12.81-12.11Zm-1.69-2.72L419.37,75.25l-1.45-2.18,12.85-12.23Zm-1.69-2.73L417.64,72.65l-1.45-2.18,12.89-12.36Zm-1.69-2.72-12.6,12.86-1.45-2.18L427.4,55.39ZM410.1,61l2.32-2.21,1.82,3-2.3,2Zm.19,4.14-.12.13L408,67.09l-1.69-2.51,2.32-2.22Zm3.61-7.76,2.32-2.22,2,3.26-1.61,1.35-.69.59Zm3.79-3.63L420,51.48l2.08,3.43-1,1c-.37.3-.78.66-1.24,1Zm9.14.77L415.88,65.71,424.34,54l1.37-1.33ZM237.17,213.82V210h-1c1.77-1.23,6.81-4.76,19.72-13.88a36.52,36.52,0,0,0,3.91-3.28l3.2,4.9L238.85,212.5l24.38-14.34.5.77Zm23.39-21.72c.93-.9,1.91-1.89,2.94-3l3.64,5.6-1.48,1.4-1.1.68Zm6.93,4.73-2,1.1-.64-.75,1.07-.62,0,0,0,0,1.44-1.34.65,1Zm-3.22-8.54c.91-1,1.86-2,2.84-3.13L271,191.1l-2.41,2.28Zm5.27,6.29-.64-.76,2.37-2.21.41.63Zm-1.7-10.26c.91-1,1.83-2.1,2.79-3.24l4.12,6.42-2.4,2.27Zm6.57,4.76-.18.16v.21l-1.13,1.23-.36-.44,2.36-2.2.18.28Zm-3.08-8.84q1.35-1.61,2.76-3.33l4.47,7-2.4,2.28Zm5.48,6.73-.24-.3,2.36-2.2.26.41Zm-2.05-10.88q1.35-1.67,2.74-3.42l4.86,7.62L280,182.56Zm6,7.43-.34-.42,2.36-2.2.35.55Zm-2.6-11.66q1.35-1.7,2.75-3.49l5.28,8.31L283.78,179Zm6.53,8.22-.44-.55,2.36-2.2.43.69Zm-3.17-12.49,2.74-3.56,5.74,9-2.4,2.27Zm7.1,9-.53-.67,2.35-2.2.52.82Zm-3.78-13.35,2.75-3.63,6.21,9.82-2.39,2.27Zm7.7,9.91-.62-.81,2.34-2.19.61,1Zm-4.4-14.26,2.77-3.69,6.7,10.62-2.39,2.27Zm8.33,10.82-.72-.94,2.34-2.18.69,1.09Zm-5.05-15.2c.92-1.23,1.85-2.49,2.78-3.75l7.22,11.46L299,164.52Zm9,11.76-.81-1.07,2.34-2.18.78,1.23Zm-5.71-16.17c.93-1.25,1.86-2.53,2.81-3.81l7.74,12.32-.42.4-2,1.86Zm9.63,12.73-.9-1.2,2.06-1.92.28-.26.86,1.36Zm-6.37-17.16,2.81-3.87L309,155.06l-2.39,2.25Zm10.28,13.7-1-1.32,2.34-2.19.85,1.36Zm-7-18.16q1.41-1.94,2.83-3.93l8.85,14.15-2.39,2.25Zm11.36,14-.56.54-.93-1.24,2.34-2.19.8,1.28Zm-8.14-18.43,2.86-4,9.41,15.08-2.39,2.25Zm11.34,15.31-.87-1.17,2.34-2.19.75,1.21Zm-8.12-19.81c1-1.33,1.91-2.68,2.87-4l10,16-2.39,2.25Zm11.88,16.16-.81-1.1,2.34-2.19.7,1.14Zm-8.67-20.67c1-1.36,1.93-2.72,2.89-4.09l10.59,17-2.39,2.24Zm13.54,16c-.37.34-.72.69-1.09,1l-.77-1.06,2.34-2.18.68,1.09ZM314,123.24l2.9-4.13,11.18,18-2.38,2.24Zm13,17.94-.74-1,2.33-2.19.66,1.05Zm-9.84-22.49c1-1.38,2-2.78,2.92-4.18l11.79,19-2.38,2.24Zm13.63,18.87-.71-1,2.33-2.19.63,1C332.33,136.12,331.58,136.84,330.84,137.56ZM320.4,114.14l2.94-4.23,12.39,20-2.38,2.24Zm14.23,19.8L334,133l2.33-2.19.62,1Zm-11.05-24.38,3-4.26,13,21-2.38,2.23Zm14.86,20.79-.67-.93,2.33-2.19.61,1ZM326.76,105l3-4.31,13.64,22.08L341,125Zm15.5,21.78-.67-.93,2.33-2.18.61,1Zm-12.33-26.38,3-4.35,14.27,23.14-2.38,2.22Zm16.14,22.79-.66-.93,2.32-2.19.61,1Zm-13-27.39,3-4.4L351,115.59l-2.38,2.22Zm17.23,23.4-.44.4-.66-.93,2.32-2.2.63,1C351.55,118,350.93,118.6,350.32,119.18Zm-14.06-28c1-1.48,2-3,3-4.43L354.84,112l-2.38,2.22ZM353.72,116l-.69-1,2.32-2.2.65,1.06Zm-14.31-29.5,3-4.47,16.21,26.38-2.37,2.22Zm18.15,25.94-.72-1,2.32-2.2.68,1.11Zm-15-30.58,3.05-4.5,16.87,27.47-2.37,2.22Zm21.08,25-2.25,2.08-.75-1.07,2.32-2.19.71,1.15ZM345.71,77.25l3.07-4.54,17.53,28.58-2.37,2.22Zm19.53,28.12-.78-1.12,2.32-2.19.74,1.2ZM348.86,72.59,351.94,68l18.2,29.69-2.37,2.22Zm20.23,29.25-.82-1.19,2.32-2.19.79,1.29ZM352,67.93q1.56-2.33,3.1-4.61L374,94.14l-2.36,2.21ZM373,98.32l-.87-1.27,2.32-2.19.85,1.38ZM355.14,63.26c1-1.57,2.08-3.11,3.1-4.65l19.55,32-2.37,2.21Zm21.68,31.55-.93-1.36,2.32-2.19.9,1.46ZM358.27,58.58c1.05-1.58,2.1-3.14,3.12-4.68L381.61,87l-2.36,2.21Zm22.42,32.71-1-1.43,2.32-2.2,1,1.57Zm3.88-3.48-1.06-1.55.46-.44,1.86-1.76,1,1.69ZM364.68,49.42l20.76,34-2,1.85-.37.35L361.4,53.89C377.86,29.21,390.73,9.39,394.88,3l30.26,48.77-1.51,1.56-2.15-3.23L423,48.62l-1.55,1.43-26-39L420,51.42l-2.35,2.18L392.06,15.33,416.13,55l-2.35,2.17L388.64,19.59l23.65,38.93-2.36,2.17L385.22,23.85l23.23,38.22-2.36,2.17-24.3-36.13,22.82,37.5-1.41,1.3-.95.89L378.37,32.37l22.4,36.8-2.36,2.19L375,36.63l22,36.1-2.36,2.2-23.06-34,21.59,35.39-2.37,2.2L368.1,45.16l21.17,34.7-2.36,2.19ZM388.87,84c-.14.12-.28.24-.41.37l-1.15-1.68,2.32-2.21,1.12,1.83Zm3.48-3.11L391.11,79l2.32-2.2,1.21,2Zm3.9-3.46-1.34-2,2.32-2.2,1.31,2.15ZM400.16,74l-1.44-2.14,2.32-2.2,1.41,2.32Zm3.92-3.44-1.56-2.31,1-1L404.84,66l1.53,2.52Zm2.43,10.36,1.64,1.41-.11.11Zm1.58,1.56.11-.11,2.25,1.92-.27.27Zm2.15,2.14.28-.27,2.23,1.91-.43.43Zm2.16,2.14.45-.42,2.21,1.89-.59.58Zm2.16,2.15.62-.58,2.19,1.87-.76.75ZM416.72,91l.79-.73,2.17,1.86-.91.9Zm2.17,2.16,1-.89L422,94.11l-1.08,1.06Zm2.17,2.15,1.13-1,2.14,1.82-1.25,1.21Zm2.18,2.16,1.3-1.19,2.12,1.81-1.42,1.37Zm2.18,2.16,1.48-1.33,2.09,1.79-1.58,1.51Zm2.18,2.16,1.66-1.48,2.07,1.78-1.75,1.67Zm2.19,2.17,1.83-1.63,2.06,1.76-1.93,1.82Zm2.19,2.17,2-1.77,2,1.74-2.1,2Zm2.19,2.18,2.19-1.93,2,1.73-2.27,2.12Zm2.19,2.18,2.38-2.07,2,1.71-2.45,2.27Zm2.2,2.18,2.56-2.22,2,1.7-2.63,2.42Zm2.21,2.19,2.74-2.36,1.52,1.29-1.1-1.65,12.17-10.47,1.12,1.8-14.55,13.27Zm2.2,2.19,14.82-12.66,1.12,1.8-14.05,12.73Zm2.21,2.19,14.3-12.13,1.12,1.81L447.06,121.1Zm2.22,2.2,13.77-11.6,1.12,1.8-13,11.64Zm2.22,2.2,13.24-11.08,1.12,1.81-12.52,11.1Zm2.22,2.2,12.71-10.55,1.12,1.8-12,10.57Zm2.22,2.21,12.18-10,1.12,1.8-11.48,10Zm2.23,2.21,11.64-9.53,1.12,1.81-10.95,9.51Zm2.24,2.21,11.09-9,1.12,1.8-10.42,9Zm2.23,2.22,10.55-8.51,1.12,1.81-9.89,8.46Zm2.24,2.22,10-8,1.12,1.8-9.35,7.95Zm2.25,2.23,9.44-7.51,1.12,1.8L467,140.88Zm2.25,2.23,8.88-7,1.12,1.8-8.27,6.93Zm2.25,2.23,8.32-6.52,1.12,1.8-7.72,6.43Zm2.25,2.24,7.76-6,1.12,1.8-7.17,5.92Zm3.43,3.27-.06.07-1.11-1.1,7.19-5.55,1.12,1.8L476,149.69Zm1.2,1.14,6.51-5,1.12,1.8-5.9,4.8Zm2.35,2.19,5.85-4.46,1.12,1.8L480.69,154Zm2.35,2.19,5.19-3.92,1.12,1.8-4.61,3.7Zm2.36,2.19,4.53-3.39,1.11,1.81-3.95,3.15Zm2.37,2.2,3.85-2.86L491,158l-3.28,2.6C487.15,160,486.61,159.53,486.06,159Zm2.38,2.19,3.16-2.32,1.11,1.8-2.61,2.05Zm2.39,2.2,2.46-1.8,1.12,1.8-1.93,1.51Zm2.4,2.2,1.75-1.27,1.12,1.8-1.24,1Zm4,3.67c-.54-.5-1.07-1-1.61-1.47l1-.74,1.12,1.8Zm.81.73.3-.22.7,1.12Zm2.85,4.51-.54-.54.55.53Zm.77.77,0,0a.94.94,0,0,1,.1.1l.09.14Z"/><path class="cls-2" d="M23.83,351.48H0V341.4H3.66V319.45H0V309.37H25.73a59.58,59.58,0,0,1,11.72.88,11.47,11.47,0,0,1,6.42,3.6,9.67,9.67,0,0,1,2.33,6.42A7.52,7.52,0,0,1,44,326a12.41,12.41,0,0,1-5.51,3,14.17,14.17,0,0,1,6.84,4.11,9.64,9.64,0,0,1,2.42,6.39A10.3,10.3,0,0,1,45,346.7a13.21,13.21,0,0,1-7.48,3.84A74.6,74.6,0,0,1,23.83,351.48ZM20,318.6v7.69h3.6c2.44,0,4.05-.35,4.82-1.06a3.71,3.71,0,0,0,1.09-2.78,4.07,4.07,0,0,0-1-2.67C27.79,319,26,318.6,23,318.6ZM20,334v8.3h3.66a10.56,10.56,0,0,0,5.06-.91,3.44,3.44,0,0,0,1.51-3.21A3.73,3.73,0,0,0,28.82,335c-.91-.66-2.66-1-5.27-1Z"/><path class="cls-2" d="M66.36,351.48H49.68V341.4h3.21l7.9-21.95H57.4V309.37H87.67v10.08H84.28l8,21.95h3.09v10.08h-22v-9.23h3.7L75.53,337H64.75l-1.84,5.3h3.45Zm4-31.42-4,11.65H73.9Z"/><path class="cls-2" d="M121.7,351.48H98.81V341.4h3.42V319.45H98.81V309.37H121.7c2.06,0,4,0,5.72.11s3.26.17,4.51.3a34,34,0,0,1,3.45.53,12.74,12.74,0,0,1,7.18,4.09,11.2,11.2,0,0,1,2.78,7.56,10.85,10.85,0,0,1-1.69,5.94,10.2,10.2,0,0,1-4.45,3.87L145,341.4h3v10.08H132.87l-9.17-17.19h-5.18v7.11h3.18Zm-3.18-32.88v8h1.82a33.74,33.74,0,0,0,4.84-.22,3.84,3.84,0,0,0,2.3-1.21,3.44,3.44,0,0,0,.94-2.57,3.55,3.55,0,0,0-.94-2.6,3.91,3.91,0,0,0-2.39-1.21,38,38,0,0,0-5.09-.22Z"/><path class="cls-2" d="M174.65,351.48H151.76V341.4h3.42V319.45h-3.42V309.37h22.89c2.06,0,4,0,5.72.11s3.26.17,4.51.3a34,34,0,0,1,3.45.53,12.74,12.74,0,0,1,7.18,4.09,11.2,11.2,0,0,1,2.78,7.56,10.85,10.85,0,0,1-1.69,5.94,10.2,10.2,0,0,1-4.45,3.87L198,341.4h3v10.08H185.82l-9.17-17.19h-5.18v7.11h3.18Zm-3.18-32.88v8h1.82a33.74,33.74,0,0,0,4.84-.22,3.87,3.87,0,0,0,2.3-1.21,3.44,3.44,0,0,0,.94-2.57,3.55,3.55,0,0,0-.94-2.6,3.93,3.93,0,0,0-2.39-1.21,38.1,38.1,0,0,0-5.09-.22Z"/><path class="cls-2" d="M219.36,351.48H202.68V341.4h3.21l7.9-21.95H210.4V309.37h30.27v10.08h-3.39l8.06,21.95h3.08v10.08h-22v-9.23h3.69l-1.61-5.3H217.76l-1.85,5.3h3.45Zm4-31.42-4,11.65h7.54Z"/><path class="cls-2" d="M284,332.92,295,336.77a19.24,19.24,0,0,1-6.38,11.05q-5.06,4.32-13.93,4.33-12.11,0-17.92-6.33a21.75,21.75,0,0,1-5.84-15.38,22.43,22.43,0,0,1,5.72-15.53,19,19,0,0,1,14.86-6.39q7.43,0,12.08,3.67v-2.82h10.11v15.38h-10.5a9.12,9.12,0,0,0-2.76-4.54,6.65,6.65,0,0,0-4.42-1.64q-6.84,0-6.84,11.78t7.08,11.81Q282.42,342.16,284,332.92Z"/><path class="cls-2" d="M314.93,351.48H298.25V341.4h3.21l7.9-21.95H306V309.37h30.28v10.08h-3.39l8.05,21.95H344v10.08H322v-9.23h3.69l-1.6-5.3H313.33l-1.85,5.3h3.45Zm-.42-44.74h-6.75q.39-5.14,2.72-7.91a7.05,7.05,0,0,1,5.57-2.75,15.15,15.15,0,0,1,5.94,1.67,9.38,9.38,0,0,0,3.24,1c1.31,0,2.16-.9,2.54-2.72h6.72A13.68,13.68,0,0,1,332,303.8a7.14,7.14,0,0,1-6,3,12.54,12.54,0,0,1-5.51-1.55,9.38,9.38,0,0,0-3.33-1.18Q315,304,314.51,306.74Zm4.39,13.32-4,11.65h7.54Z"/><path class="cls-2" d="M347.75,330.32a21.86,21.86,0,0,1,2.57-10.2,21.44,21.44,0,0,1,7.91-8.27,19.51,19.51,0,0,1,3.92-1.87,25.16,25.16,0,0,1,4.37-1.08,31.61,31.61,0,0,1,5-.38q11.31,0,17.52,6.63a23.13,23.13,0,0,1,4.67,7.09,21.52,21.52,0,0,1-4.85,23.4q-6.42,6.51-17.34,6.51-10.58,0-17.14-6.12A20.4,20.4,0,0,1,347.75,330.32Zm18.29,0q0,7,1.36,9.47a4.32,4.32,0,0,0,4.09,2.49,4.45,4.45,0,0,0,4.11-2.39q1.36-2.43,1.36-9.57,0-6.93-1.33-9.45a4.37,4.37,0,0,0-4.14-2.48,4.43,4.43,0,0,0-4.09,2.39Q366,323.18,366,330.32Z"/><path class="cls-2" d="M426.1,351.48h-9.48V338h9.48q1.69,5.5,6.39,5.51,3.39,0,3.39-2.73a2.93,2.93,0,0,0-1.18-2.36,28.54,28.54,0,0,0-5.36-2.84,50.34,50.34,0,0,1-7.57-4,13.09,13.09,0,0,1-3.88-4.27,11.4,11.4,0,0,1-1.6-6q0-5.88,3.81-9.17a13.72,13.72,0,0,1,9.33-3.3,14.36,14.36,0,0,1,9.38,3.14v-2.6h9.54v12h-9.42c-1.15-3.31-3.18-5-6.11-5q-3.09,0-3.09,2.64a2.17,2.17,0,0,0,.88,1.9,43.93,43.93,0,0,0,5.48,2.94,82.81,82.81,0,0,1,8.29,4.51,11.45,11.45,0,0,1,2.17,1.95,14.27,14.27,0,0,1,1.83,2.59,12.91,12.91,0,0,1,1.66,6.42,11.78,11.78,0,0,1-3.93,9,13.88,13.88,0,0,1-9.93,3.73,16.68,16.68,0,0,1-10.08-3.3Z"/><path class="cls-2" d="M487.67,351.48H464V341.4h3.63V319.45h-4.84v7.66h-7.9V309.37h41.75v17.74h-7.91v-7.66H484V341.4h3.72Z"/><path class="cls-2" d="M500,330.32a21.74,21.74,0,0,1,2.57-10.2,21.42,21.42,0,0,1,7.9-8.27,19.77,19.77,0,0,1,3.92-1.87,25.05,25.05,0,0,1,4.38-1.08,31.49,31.49,0,0,1,5-.38q11.32,0,17.53,6.63a23.1,23.1,0,0,1,4.66,7.09,21.53,21.53,0,0,1-4.84,23.4q-6.42,6.51-17.35,6.51-10.56,0-17.13-6.12A20.4,20.4,0,0,1,500,330.32Zm18.28,0c0,4.68.46,7.84,1.36,9.47a4.32,4.32,0,0,0,4.09,2.49,4.45,4.45,0,0,0,4.12-2.39q1.36-2.43,1.36-9.57,0-6.93-1.33-9.45a4.37,4.37,0,0,0-4.15-2.48,4.43,4.43,0,0,0-4.09,2.39C518.71,322.38,518.25,325.56,518.25,330.32Z"/><path class="cls-2" d="M576.13,351.48H553.25V341.4h3.42V319.45h-3.42V309.37h22.88c2.06,0,4,0,5.73.11s3.25.17,4.51.3a34,34,0,0,1,3.45.53A12.71,12.71,0,0,1,597,314.4a11.16,11.16,0,0,1,2.79,7.56,10.86,10.86,0,0,1-1.7,5.94,10.15,10.15,0,0,1-4.45,3.87l5.81,9.63h3v10.08H587.3l-9.17-17.19H573v7.11h3.17ZM573,318.6v8h1.81a33.91,33.91,0,0,0,4.85-.22,3.9,3.9,0,0,0,2.3-1.21,3.48,3.48,0,0,0,.93-2.57,3.58,3.58,0,0,0-.93-2.6,4,4,0,0,0-2.4-1.21,37.82,37.82,0,0,0-5.08-.22Z"/><path class="cls-2" d="M646.46,351.48H606.29V341.4h3.27V319.45h-3.33V309.37h40.23v13.47H635.41v-3.39h-9.57v6.48h8.33v8.57h-8.33v6.9h9.57V338h11.05Z"/><text/></g></g></svg>